<svg xmlns="http://www.w3.org/2000/svg" xmlns:xlink="http://www.w3.org/1999/xlink" width="500" zoomAndPan="magnify" viewBox="0 0 375 374.999991" height="500" preserveAspectRatio="xMidYMid meet" version="1.0"><defs><g/></defs><g fill="#000000" fill-opacity="1"><g transform="translate(14.282777, 217.349434)"><g><path d="M 9.921875 -56.515625 L 9.921875 -77.5625 L 29.421875 -77.5625 L 29.421875 -56.515625 L 41.3125 -56.515625 L 41.3125 -41.640625 L 29.421875 -41.640625 L 29.421875 -23.6875 C 29.421875 -18.46875 30.890625 -15.859375 33.828125 -15.859375 C 34.554688 -15.859375 35.320312 -16.003906 36.125 -16.296875 C 36.9375 -16.597656 37.566406 -16.894531 38.015625 -17.1875 L 38.671875 -17.625 L 43.515625 -1.875 C 39.328125 0.476562 34.554688 1.65625 29.203125 1.65625 C 25.523438 1.65625 22.363281 1.015625 19.71875 -0.265625 C 17.070312 -1.554688 15.066406 -3.285156 13.703125 -5.453125 C 12.347656 -7.617188 11.378906 -9.894531 10.796875 -12.28125 C 10.210938 -14.664062 9.921875 -17.21875 9.921875 -19.9375 L 9.921875 -41.640625 L 1.765625 -41.640625 L 1.765625 -56.515625 Z M 9.921875 -56.515625 "/></g></g></g><g fill="#000000" fill-opacity="1"><g transform="translate(47.433562, 217.349434)"><g><path d="M 6.609375 0 L 6.609375 -56.515625 L 26.109375 -56.515625 L 26.109375 -48.359375 L 26.328125 -48.359375 C 26.472656 -48.660156 26.710938 -49.03125 27.046875 -49.46875 C 27.378906 -49.90625 28.09375 -50.675781 29.1875 -51.78125 C 30.289062 -52.882812 31.46875 -53.875 32.71875 -54.75 C 33.96875 -55.632812 35.582031 -56.425781 37.5625 -57.125 C 39.550781 -57.820312 41.570312 -58.171875 43.625 -58.171875 C 45.757812 -58.171875 47.851562 -57.875 49.90625 -57.28125 C 51.96875 -56.695312 53.472656 -56.113281 54.421875 -55.53125 L 55.96875 -54.640625 L 47.8125 -38.125 C 45.382812 -40.175781 42.003906 -41.203125 37.671875 -41.203125 C 35.328125 -41.203125 33.304688 -40.6875 31.609375 -39.65625 C 29.921875 -38.632812 28.726562 -37.390625 28.03125 -35.921875 C 27.332031 -34.453125 26.835938 -33.203125 26.546875 -32.171875 C 26.253906 -31.140625 26.109375 -30.332031 26.109375 -29.75 L 26.109375 0 Z M 6.609375 0 "/></g></g></g><g fill="#000000" fill-opacity="1"><g transform="translate(91.929353, 217.349434)"><g><path d="M 10.46875 -6.984375 C 5.175781 -12.753906 2.53125 -19.828125 2.53125 -28.203125 C 2.53125 -36.578125 5.175781 -43.664062 10.46875 -49.46875 C 15.757812 -55.269531 22.476562 -58.171875 30.625 -58.171875 C 38.113281 -58.171875 44.285156 -55.820312 49.140625 -51.125 L 49.140625 -56.515625 L 68.640625 -56.515625 L 68.640625 0 L 49.359375 0 L 49.359375 -6.390625 L 49.140625 -6.390625 C 44.285156 -1.023438 38.113281 1.65625 30.625 1.65625 C 22.476562 1.65625 15.757812 -1.222656 10.46875 -6.984375 Z M 27.046875 -37.78125 C 24.515625 -35.289062 23.25 -32.097656 23.25 -28.203125 C 23.25 -24.304688 24.457031 -21.128906 26.875 -18.671875 C 29.300781 -16.210938 32.5 -14.984375 36.46875 -14.984375 C 40.289062 -14.984375 43.429688 -16.226562 45.890625 -18.71875 C 48.347656 -21.21875 49.578125 -24.378906 49.578125 -28.203125 C 49.578125 -32.097656 48.304688 -35.289062 45.765625 -37.78125 C 43.234375 -40.28125 40.132812 -41.53125 36.46875 -41.53125 C 32.71875 -41.53125 29.578125 -40.28125 27.046875 -37.78125 Z M 27.046875 -37.78125 "/></g></g></g><g fill="#000000" fill-opacity="1"><g transform="translate(156.802077, 217.349434)"><g><path d="M 20.9375 -56.515625 L 34.703125 -25.78125 L 48.46875 -56.515625 L 71.609375 -56.515625 L 41.3125 0 L 28.09375 0 L -2.203125 -56.515625 Z M 20.9375 -56.515625 "/></g></g></g><g fill="#000000" fill-opacity="1"><g transform="translate(215.837074, 217.349434)"><g><path d="M 63.796875 -25.5625 L 22.8125 -25.5625 C 22.8125 -21.59375 24.09375 -18.648438 26.65625 -16.734375 C 29.226562 -14.828125 32.019531 -13.875 35.03125 -13.875 C 38.1875 -13.875 40.679688 -14.296875 42.515625 -15.140625 C 44.359375 -15.992188 46.457031 -17.664062 48.8125 -20.15625 L 62.90625 -13.109375 C 57.03125 -3.265625 47.265625 1.65625 33.609375 1.65625 C 25.085938 1.65625 17.773438 -1.257812 11.671875 -7.09375 C 5.578125 -12.9375 2.53125 -19.972656 2.53125 -28.203125 C 2.53125 -36.429688 5.578125 -43.484375 11.671875 -49.359375 C 17.773438 -55.234375 25.085938 -58.171875 33.609375 -58.171875 C 42.566406 -58.171875 49.851562 -55.582031 55.46875 -50.40625 C 61.09375 -45.226562 63.90625 -37.828125 63.90625 -28.203125 C 63.90625 -26.878906 63.867188 -26 63.796875 -25.5625 Z M 23.359375 -36.359375 L 44.84375 -36.359375 C 44.394531 -39.296875 43.234375 -41.550781 41.359375 -43.125 C 39.492188 -44.707031 37.09375 -45.5 34.15625 -45.5 C 30.925781 -45.5 28.351562 -44.65625 26.4375 -42.96875 C 24.53125 -41.28125 23.503906 -39.078125 23.359375 -36.359375 Z M 23.359375 -36.359375 "/></g></g></g><g fill="#000000" fill-opacity="1"><g transform="translate(271.898132, 217.349434)"><g><path d="M 6.609375 0 L 6.609375 -94.75 L 26.109375 -94.75 L 26.109375 0 Z M 6.609375 0 "/></g></g></g><g fill="#38b6ff" fill-opacity="1"><g transform="translate(294.272674, 217.349434)"><g><path d="M 8.484375 -88.015625 C 10.765625 -90.296875 13.484375 -91.4375 16.640625 -91.4375 C 19.796875 -91.4375 22.507812 -90.296875 24.78125 -88.015625 C 27.0625 -85.742188 28.203125 -83.03125 28.203125 -79.875 C 28.203125 -76.71875 27.0625 -74 24.78125 -71.71875 C 22.507812 -69.445312 19.796875 -68.3125 16.640625 -68.3125 C 13.484375 -68.3125 10.765625 -69.445312 8.484375 -71.71875 C 6.203125 -74 5.0625 -76.71875 5.0625 -79.875 C 5.0625 -83.03125 6.203125 -85.742188 8.484375 -88.015625 Z M 6.609375 -56.515625 L 6.609375 0 L 26.109375 0 L 26.109375 -56.515625 Z M 6.609375 -56.515625 "/></g></g></g><g fill="#38b6ff" fill-opacity="1"><g transform="translate(317.179944, 217.349434)"><g><path d="M 9.921875 -56.515625 L 9.921875 -77.5625 L 29.421875 -77.5625 L 29.421875 -56.515625 L 41.3125 -56.515625 L 41.3125 -41.640625 L 29.421875 -41.640625 L 29.421875 -23.6875 C 29.421875 -18.46875 30.890625 -15.859375 33.828125 -15.859375 C 34.554688 -15.859375 35.320312 -16.003906 36.125 -16.296875 C 36.9375 -16.597656 37.566406 -16.894531 38.015625 -17.1875 L 38.671875 -17.625 L 43.515625 -1.875 C 39.328125 0.476562 34.554688 1.65625 29.203125 1.65625 C 25.523438 1.65625 22.363281 1.015625 19.71875 -0.265625 C 17.070312 -1.554688 15.066406 -3.285156 13.703125 -5.453125 C 12.347656 -7.617188 11.378906 -9.894531 10.796875 -12.28125 C 10.210938 -14.664062 9.921875 -17.21875 9.921875 -19.9375 L 9.921875 -41.640625 L 1.765625 -41.640625 L 1.765625 -56.515625 Z M 9.921875 -56.515625 "/></g></g></g><g fill="#000000" fill-opacity="1"><g transform="translate(350.341242, 217.349434)"><g/></g></g></svg>